<?xml version="1.0" encoding="UTF-8" standalone="no"?>
<!-- Created with Inkscape (http://www.inkscape.org/) -->

<svg
   width="410"
   height="300"
   viewBox="0 0 410 300"
   version="1.1"
   id="svg1"
   xml:space="preserve"
   inkscape:version="1.4.2 (f4327f4, 2025-05-13)"
   sodipodi:docname="logo.svg"
   xmlns:inkscape="http://www.inkscape.org/namespaces/inkscape"
   xmlns:sodipodi="http://sodipodi.sourceforge.net/DTD/sodipodi-0.dtd"
   xmlns="http://www.w3.org/2000/svg"
   xmlns:svg="http://www.w3.org/2000/svg"><sodipodi:namedview
     id="namedview1"
     pagecolor="#505050"
     bordercolor="#eeeeee"
     borderopacity="1"
     inkscape:showpageshadow="0"
     inkscape:pageopacity="0"
     inkscape:pagecheckerboard="0"
     inkscape:deskcolor="#505050"
     inkscape:document-units="px"
     inkscape:zoom="2"
     inkscape:cx="168.75"
     inkscape:cy="125.25"
     inkscape:window-width="1920"
     inkscape:window-height="991"
     inkscape:window-x="-9"
     inkscape:window-y="-9"
     inkscape:window-maximized="1"
     inkscape:current-layer="svg1" /><defs
     id="defs1"><clipPath
       clipPathUnits="userSpaceOnUse"
       id="clipPath4278"><path
         d="M 0,660 H 660 V 0 H 0 Z"
         id="path4276"
         inkscape:connector-curvature="0" /></clipPath></defs><path
     id="path3"
     style="baseline-shift:baseline;display:inline;overflow:visible;vector-effect:none;fill:#b5463b;fill-opacity:1;enable-background:accumulate;stop-color:#000000"
     inkscape:label="ellipsis"
     d="m 205.26925,13.715716 c -55.03688,0 -104.91763,14.944779 -141.234368,39.333993 -36.316754,24.3892 -59.1894613,58.458531 -59.1894613,96.333981 0,22.15773 7.8274343,43.01226 21.5957033,61.38867 h 8.244141 c -14.927922,-18.3264 -23.320313,-39.24238 -23.320313,-61.38867 0,-35.25213 21.262126,-67.386421 56.30469,-90.919921 C 102.71221,34.930255 151.4155,20.235247 205.26925,20.235247 c 53.85375,0 102.55509,14.695008 137.59766,38.228522 35.04256,23.5335 56.30664,55.667791 56.30664,90.919921 0,22.14629 -8.39182,43.06227 -23.32031,61.38867 h 8.24218 c 13.76883,-18.37641 21.59766,-39.23094 21.59766,-61.38867 0,-37.87545 -22.87467,-71.944781 -59.19141,-96.333981 C 310.18493,28.660495 260.30613,13.715716 205.26925,13.715716 Z M 91.372772,261.08682 c 32.381958,15.14552 71.617518,23.96679 113.896478,23.96679 42.27896,0 81.51311,-8.82127 113.89453,-23.96679 h -16.63086 c -28.56677,11.07337 -61.79842,17.44726 -97.26367,17.44726 -35.46525,0 -68.69632,-6.37389 -97.26367,-17.44726 z" /><path
     style="opacity:1;fill:#fbefd9;fill-opacity:1;stroke-width:0"
     d="m 228.88768,52.803459 34.55985,0.79549 21.03642,3.8007 -3.27037,2.47487 -55.06594,-3.44714 z"
     id="path2"
     inkscape:label="car-background2"
     sodipodi:nodetypes="cccccc" /><path
     style="opacity:1;fill:#fbefd9;fill-opacity:1;stroke-width:0"
     d="m 107.15224,84.296679 c 0,0 54.60067,-21.75476 87.68927,-27.72385 41.21294,-7.43471 102.26269,4.94309 102.26269,4.94309 l 64.25808,63.713521 -23.23456,32.31056 -5.39156,1.34587 -9.11313,1.68465 -220.31969,37.75212 -57.502598,-29.13636 -13.605527,-20.79335 2.153941,-9.58243 -0.116321,-17.11521 c 0,0 0.850346,-5.24647 2.583125,-8.19861 1.73278,-2.95214 70.33628,-29.200001 70.33628,-29.200001 z"
     id="path1"
     sodipodi:nodetypes="csccccccccccsc"
     inkscape:label="car-background1" /><path
     d="m 310.15773,133.39152 c -3.49962,0 -6.7565,3.10424 -7.27534,6.93309 -0.51885,3.83043 1.89723,6.93465 5.39634,6.93465 3.50014,0 6.75857,-3.10422 7.27742,-6.93465 0.51886,-3.82885 -1.89828,-6.93309 -5.39842,-6.93309 m -158.04929,27.55732 c -3.77938,0 -7.29827,3.35272 -7.85879,7.48945 -0.56052,4.1362 2.04935,7.4884 5.83027,7.4884 3.77989,0 7.29774,-3.3522 7.85826,-7.4884 0.56054,-4.13673 -2.04934,-7.48945 -5.82974,-7.48945 m 161.9917,-31.96388 c -6.77263,0 -13.07748,6.00896 -14.08184,13.42025 -1.00228,7.41027 3.67415,13.41713 10.44625,13.41713 6.7737,0 13.0775,-6.00686 14.08186,-13.41713 1.0033,-7.41129 -3.67258,-13.42025 -10.44627,-13.42025 m -157.73361,27.2062 c -7.31493,0 -14.12404,6.48873 -15.20863,14.4913 -1.08405,8.00516 3.96691,14.49286 11.2808,14.49286 7.31546,0 14.12456,-6.4877 15.20914,-14.49286 1.08406,-8.00257 -3.9669,-14.4913 -11.28131,-14.4913 M 37.650229,146.16842 c 0,10.02274 14.828853,21.77602 37.723843,33.44543 l -2.71927,-19.82512 c -14.74083,-3.46264 -34.104933,-18.7692 -35.004573,-22.5048 z m 257.047271,-27.36143 -114.30348,18.8614 64.02779,-8.68343 z M 266.8219,75.178389 c 2.77135,6.87421 4.20652,14.46212 4.18516,22.440181 l 47.23659,-6.680941 c 1.06426,-2.68906 0.68972,-5.62191 -1.03196,-8.0708 -1.7217,-2.44839 -4.62588,-4.18154 -7.9932,-4.76966 -13.96359,-2.43537 -28.20796,-3.40846 -42.39659,-2.91878 m -28.15744,2.91878 c -2.07644,0.36204 -4.14557,0.75847 -6.20846,1.18824 -20.65966,4.30551 -39.46532,13.22491 -54.33534,25.769481 l -8.11508,6.8461 90.40051,-12.7842 c 0.24068,-8.138021 -0.84078,-16.030141 -3.22508,-23.379961 -6.20848,0.50477 -12.38935,1.2919 -18.51655,2.36034 m -36.4913,0.82099 c 27.52762,-8.24845 56.5425,-13.63489 88.20061,-13.92817 -36.26053,-2.50516 -63.15523,4.42272 -88.20061,13.92817 m 162.80697,6.55592 c -1.83472,12.233051 -4.46803,18.300881 4.13933,29.110231 10.42489,13.0926 -3.59183,32.21966 -19.16511,38.34478 l -9.82321,4.71444 -8.30523,1.43048 c 3.87574,-4.52743 6.59552,-10.24153 7.43787,-16.45417 1.98945,-14.68977 -7.28159,-26.60036 -20.70601,-26.60036 -1.42163,0 -2.83335,0.13492 -4.22215,0.39173 0.49071,-0.0324 0.98247,-0.0516 1.47423,-0.0516 13.14677,0 22.22349,11.66055 20.27469,26.04558 -1.94881,14.38294 -14.18604,26.04349 -27.3302,26.04349 -4.31072,0 -8.18488,-1.2539 -11.37508,-3.44598 l -116.5508,20.06004 c 1.80816,-3.57881 3.06778,-7.48892 3.62206,-11.58449 2.31449,-17.07929 -8.46255,-30.92409 -24.0702,-30.92409 -0.37038,0 -0.74024,0.012 -1.10803,0.026 13.62239,0.60949 22.88976,12.95716 20.83729,28.10222 -2.10456,15.53524 -15.32061,28.12878 -29.51706,28.12878 -14.19802,0 -24.00143,-12.59354 -21.89687,-28.12878 0.15993,-1.17886 0.38497,-2.34056 0.66835,-3.48296 -0.65688,2.02695 -1.1424,4.12579 -1.4336,6.2788 -1.03352,7.6275 0.54646,14.60851 4.00129,20.00224 l -35.405168,6.09283 -15.35292,-4.38625 c -19.94441,-5.699 -46.719813,-26.77279 -52.418293,-46.71618 -0.577186,-2.02226 -0.30996,-4.18933 0.740774,-6.00998 1.05072,-1.81963 2.79532,-3.13655 4.83372,-3.64653 L 34.019336,125.6608 c -0.0328,-1.37993 0.038,-2.71301 0.20524,-4.0018 0.931427,2.94588 2.182187,5.38852 3.8648,6.51531 l 5.372373,6.33765 c 4.183093,4.93428 9.949293,8.26304 16.313523,9.41847 0.70429,0.1276 1.36274,0.40735 1.93473,0.80795 9.21061,6.46894 20.63361,6.95967 30.36411,1.30338 l 5.99958,-3.48764 34.104908,-14.31679 -28.9508,9.43096 c -12.756078,4.15548 -26.502438,4.15548 -39.259028,0 -11.73713,-3.8226 -21.672356,-11.47145 -28.371543,-21.50252 8.002053,-21.107131 44.694423,-28.252761 71.540161,-31.863341 5.46145,14.219361 28.83307,24.457251 43.81301,25.837201 l 7.06384,0.64908 c 15.73737,-15.946271 23.15284,-21.267071 39.94197,-29.131061 -8.78344,-8.59956 -19.41567,-15.019 -30.36619,-18.3639 2.08998,-0.73348 4.22632,-1.431 6.40122,-2.09571 36.0506,-5.66931 71.8548,-8.45421 107.02919,-3.88407 -36.07509,-5.4052 -60.66205,-3.41264 -93.79386,0.35735 40.07896,-9.23873 87.98129,-8.16717 108.17366,2.81825 2.87556,1.68834 6.75078,2.9292 16.91626,3.08548 4.24662,0.0652 7.70561,1.37786 11.56937,3.14174 z"
     style="opacity:1;fill:#b5463b;fill-opacity:1;fill-rule:evenodd;stroke:none;stroke-width:0.520932"
     id="path4372"
     inkscape:connector-curvature="0"
     inkscape:label="car" /><text
     xml:space="preserve"
     style="font-style:normal;font-variant:normal;font-weight:600;font-stretch:normal;font-size:40px;font-family:'Playfair Display';-inkscape-font-specification:'Playfair Display Semi-Bold';text-align:start;writing-mode:lr-tb;direction:ltr;text-anchor:start;opacity:1;fill:#b5463b;fill-opacity:1;stroke:none;stroke-width:0;stroke-dasharray:none;stroke-opacity:1"
     x="22.077253"
     y="249.27921"
     id="text5"
     inkscape:label="text"><tspan
       sodipodi:role="line"
       id="tspan5"
       x="22.077253"
       y="249.27921"
       style="font-style:normal;font-variant:normal;font-weight:600;font-stretch:normal;font-size:40px;font-family:'Playfair Display';-inkscape-font-specification:'Playfair Display Semi-Bold';fill:#b5463b;fill-opacity:1">Maatwerk op wielen</tspan></text></svg>
